<?xml version="1.0" ?><!DOCTYPE svg  PUBLIC '-//W3C//DTD SVG 1.1//EN'  'http://www.w3.org/Graphics/SVG/1.1/DTD/svg11.dtd'><svg enable-background="new 0 0 91 91" height="91px" id="Layer_1" version="1.1" viewBox="0 0 91 91" width="91px" xml:space="preserve" xmlns="http://www.w3.org/2000/svg" xmlns:xlink="http://www.w3.org/1999/xlink"><g><path d="M33.783,53.472c3.699,3.699,8.618,5.736,13.85,5.736c5.232,0,10.15-2.037,13.851-5.736   c7.635-7.636,7.634-20.061-0.001-27.698c-3.7-3.698-8.619-5.735-13.85-5.735c-5.231,0-10.15,2.037-13.85,5.735   C26.147,33.41,26.147,45.835,33.783,53.472z M36.201,28.165c2.019,0.408,4.099,1.177,6.158,2.236   c-0.646,0.764-1.324,1.515-2.049,2.24c-0.761,0.76-1.549,1.473-2.354,2.148c-1.051-2.044-1.813-4.108-2.223-6.111   c0.153-0.166,0.293-0.34,0.453-0.501C36.191,28.173,36.197,28.169,36.201,28.165z M59.079,51.067   c-0.157,0.157-0.329,0.296-0.491,0.445c-1.977-0.402-4.004-1.134-6.016-2.157c0.668-0.796,1.374-1.575,2.126-2.327   c0.718-0.717,1.46-1.387,2.214-2.026c1.033,2.027,1.77,4.071,2.171,6.062C59.082,51.064,59.08,51.065,59.079,51.067z M45.346,32.14   c1.423,0.946,2.803,2.041,4.123,3.242l-6.525,6.526c-1.205-1.325-2.303-2.71-3.252-4.139c1.04-0.846,2.052-1.753,3.023-2.724   C43.65,34.108,44.527,33.137,45.346,32.14z M49.582,47.632c-1.458-0.963-2.875-2.084-4.232-3.32l6.523-6.523   c1.232,1.354,2.35,2.766,3.311,4.219c-0.992,0.814-1.958,1.687-2.89,2.617C51.328,45.591,50.425,46.598,49.582,47.632z    M42.934,46.727c1.475,1.353,3.026,2.569,4.623,3.634c-1.129,1.68-2.085,3.415-2.857,5.173c-2.654-0.483-5.134-1.615-7.244-3.328   L42.934,46.727z M50.48,52.11c1.479,0.788,2.975,1.44,4.467,1.945c-2.035,1.033-4.275,1.617-6.606,1.718   C48.953,54.532,49.666,53.307,50.48,52.11z M59.66,42.897c1.34-0.922,2.715-1.722,4.108-2.387c-0.134,2.463-0.825,4.895-2.075,7.1   C61.176,46.037,60.493,44.457,59.66,42.897z M57.909,39.978c-1.062-1.592-2.274-3.137-3.621-4.605l5.927-5.928   c1.783,2.201,2.893,4.766,3.349,7.423C61.638,37.682,59.742,38.731,57.909,39.978z M51.873,32.979   c-1.436-1.315-2.943-2.517-4.502-3.563c1.256-1.852,2.311-3.768,3.127-5.713c2.68,0.477,5.185,1.611,7.313,3.339L51.873,32.979z    M44.45,27.665c-1.603-0.862-3.224-1.562-4.837-2.091c2.201-1.261,4.672-1.979,7.257-2.1C46.199,24.896,45.389,26.299,44.45,27.665   z M35.215,36.868c-1.219,0.828-2.467,1.552-3.732,2.171c0.084-2.324,0.654-4.632,1.73-6.751   C33.73,33.816,34.4,35.351,35.215,36.868z M31.744,42.667c1.774-0.773,3.524-1.736,5.219-2.876   c1.051,1.566,2.256,3.079,3.577,4.521l-5.489,5.49C33.331,47.68,32.229,45.222,31.744,42.667z" fill="#010101"/><path d="M64.334,58.86l2.602,2.601l2.404-2.404l-4.967-4.966l-1.201,1.202c-4.161,4.162-9.693,6.453-15.579,6.453   s-11.419-2.291-15.579-6.453c-8.59-8.59-8.59-22.567,0-31.159l1.201-1.203l-4.926-4.925l-2.404,2.404l2.563,2.562   c-8.738,9.979-8.35,25.214,1.162,34.726c4.018,4.018,9.145,6.519,14.689,7.232v7.503h-7.47v3.4h18.34v-3.4h-7.47v-7.291   C53.884,65.116,59.725,62.903,64.334,58.86z" fill="#010101"/></g></svg>